<mxfile host="Electron" modified="2023-12-09T00:04:59.504Z" agent="Mozilla/5.0 (X11; Linux x86_64) AppleWebKit/537.36 (KHTML, like Gecko) draw.io/22.1.2 Chrome/114.0.5735.289 Electron/25.9.4 Safari/537.36" etag="roL8kl2vaxIFe70fEcp2" version="22.1.2" type="device">
  <diagram name="Page-1" id="FFIYP_X_qciEp6ciSwt-">
    <mxGraphModel dx="708" dy="861" grid="1" gridSize="10" guides="1" tooltips="1" connect="1" arrows="1" fold="1" page="1" pageScale="1" pageWidth="850" pageHeight="1100" math="0" shadow="0">
      <root>
        <mxCell id="0" />
        <mxCell id="1" parent="0" />
        <mxCell id="3FmT_fRZ8gvAW6Bo3EOw-3" value="" style="edgeStyle=orthogonalEdgeStyle;rounded=0;orthogonalLoop=1;jettySize=auto;html=1;" edge="1" parent="1" source="3FmT_fRZ8gvAW6Bo3EOw-1" target="3FmT_fRZ8gvAW6Bo3EOw-2">
          <mxGeometry relative="1" as="geometry" />
        </mxCell>
        <mxCell id="3FmT_fRZ8gvAW6Bo3EOw-1" value="TSN Element 1" style="rounded=0;whiteSpace=wrap;html=1;" vertex="1" parent="1">
          <mxGeometry x="310" y="410" width="120" height="60" as="geometry" />
        </mxCell>
        <mxCell id="3FmT_fRZ8gvAW6Bo3EOw-2" value="TSN Element 2" style="rounded=0;whiteSpace=wrap;html=1;" vertex="1" parent="1">
          <mxGeometry x="480" y="410" width="120" height="60" as="geometry" />
        </mxCell>
      </root>
    </mxGraphModel>
  </diagram>
</mxfile>
